:SAMPLES-PER-SECOND 30
:FULLY-SPECIFIED
:DEGREES
28
root  9.74028 39.3438 -1.58394 -13.5967 -78.3207 8.89789
RightUpLeg  5.48341 -10.6018 -7.67556
RightLeg  12.3651 4.82064 0.77739
RightFoot  -14.392 0.0164956 4.28092
RightToes  5.23868e-010 0 -3.6325e-017
Spine  5.65017 -0.490629 7.8246
Spine1  8.19313 0.850419 -3.54759
HEad  -11.5113 -11.6623 -6.83674
LeftShoulder1  -0.856861 5.68075 -33.1892
LeftArm  -13.5803 20.3083 -46.7209
LeftForeArm  30.2038 -2.45027 -3.32963
LeftHand  -0.0418773 5.55499 -4.59184
RightShoulder  -1.05949 -6.5066 28.7506
RightArm  7.91297 -4.80768 47.9674
RightForeArm  18.9385 8.17763 4.95122
RightHand  -0.182142 1.96291 -3.06083
LeftUpLeg  -14.8746 3.17773 3.42274
LeftLeg  20.6724 -2.59834 -0.759987
LeftFoot  -6.30514 0.369372 -7.52964
LeftToes  -4.9204e-010 1.02043e-011 -1.81609e-011
29
root  9.39455 39.346 -1.31189 -13.2897 -77.655 9.09173
RightUpLeg  6.07444 -10.7379 -8.19319
RightLeg  11.6479 4.48897 0.610032
RightFoot  -14.48 0.0315051 4.73336
RightToes  5.23868e-010 0 -3.6325e-017
Spine  5.58766 -0.315919 7.73335
Spine1  8.02035 1.02624 -3.78329
HEad  -11.8666 -12.2663 -6.13892
LeftShoulder1  -0.819299 5.60427 -32.8404
LeftArm  -13.2845 21.1974 -45.5314
LeftForeArm  30.3265 -3.52659 -3.54419
LeftHand  -0.0540036 5.81549 -4.48967
RightShoulder  -1.04367 -6.45593 28.8161
RightArm  10.3745 -3.58643 47.7639
RightForeArm  19.3709 8.83334 5.80206
RightHand  -0.204615 1.60494 -3.52992
LeftUpLeg  -15.7303 3.40976 3.77829
LeftLeg  17.651 -2.85465 -0.694882
LeftFoot  -5.71251 0.390091 -7.2479
LeftToes  -4.9204e-010 1.02043e-011 -1.81609e-011
30
root  9.00609 39.3304 -0.986588 -13.2779 -76.7459 9.18743
RightUpLeg  7.30222 -10.9893 -8.92217
RightLeg  10.8331 4.11432 0.465821
RightFoot  -14.5544 0.0439665 5.08322
RightToes  5.23868e-010 0 -3.6325e-017
Spine  5.60382 -0.229473 7.31024
Spine1  8.27359 1.06813 -3.73695
HEad  -12.166 -12.8194 -5.85024
LeftShoulder1  -0.787973 5.55579 -32.2374
LeftArm  -13.0668 21.4803 -44.699
LeftForeArm  29.1584 -4.65294 -3.73871
LeftHand  -0.0428517 5.71629 -3.07847
RightShoulder  -1.02324 -6.40364 28.7457
RightArm  11.6338 -2.4529 47.5059
RightForeArm  18.8486 9.58264 6.11041
RightHand  -0.269214 2.69559 -4.08564
LeftUpLeg  -16.0926 3.75773 4.00711
LeftLeg  14.8151 -3.34918 -0.66494
LeftFoot  -4.77554 0.396275 -6.40096
LeftToes  -4.9204e-010 1.02043e-011 -1.81609e-011
31
root  8.58395 39.2989 -0.60015 -12.3958 -75.9276 8.60952
RightUpLeg  8.42419 -11.2122 -9.53677
RightLeg  9.92482 3.71306 0.407721
RightFoot  -14.6884 0.0634314 5.58112
RightToes  5.23868e-010 0 -3.6325e-017
Spine  5.39918 -0.21222 7.00731
Spine1  8.48053 1.04423 -3.7794
HEad  -12.8225 -13.3262 -5.4157
LeftShoulder1  -0.777894 5.54587 -31.9296
LeftArm  -13.2857 21.4431 -43.6749
LeftForeArm  27.4007 -6.0237 -3.6666
LeftHand  -0.0417073 5.71779 -2.58747
RightShoulder  -0.999536 -6.36302 28.403
RightArm  12.7622 -1.45095 47.2366
RightForeArm  17.9835 10.5493 6.22296
RightHand  -0.233628 1.57172 -4.04927
LeftUpLeg  -16.5966 4.07858 4.28061
LeftLeg  12.4386 -3.39846 -0.453813
LeftFoot  -3.94884 0.404191 -5.88689
LeftToes  -4.9204e-010 1.02043e-011 -1.81609e-011
32
root  8.11497 39.2428 -0.148587 -11.2331 -75.3999 7.82833
RightUpLeg  9.44461 -11.1533 -9.92447
RightLeg  9.05765 3.28179 0.115568
RightFoot  -14.8296 0.0876217 6.17814
RightToes  5.23868e-010 0 -3.6325e-017
Spine  5.22735 -0.120731 6.78012
Spine1  8.47579 1.11449 -3.88225
HEad  -13.1902 -14.3205 -4.85451
LeftShoulder1  -0.851154 5.73322 -32.0133
LeftArm  -13.3475 20.85 -42.1761
LeftForeArm  25.1608 -7.4181 -3.63602
LeftHand  -0.0369145 5.57956 -2.03979
RightShoulder  -0.914459 -6.1626 27.824
RightArm  13.4129 -0.891631 46.776
RightForeArm  16.0744 11.6059 6.10914
RightHand  -0.249279 1.49088 -4.35934
LeftUpLeg  -17.1574 5.00291 4.49677
LeftLeg  11.061 -2.43981 -0.159346
LeftFoot  -3.25902 0.383822 -5.15591
LeftToes  -4.9204e-010 1.02043e-011 -1.81609e-011
33
root  7.61572 39.1314 0.385528 -10.3705 -74.8183 7.3098
RightUpLeg  10.471 -11.3464 -10.6661
RightLeg  8.59747 3.17444 0.00908427
RightFoot  -15.3177 0.139047 6.97763
RightToes  5.23868e-010 0 -3.6325e-017
Spine  5.24484 -0.11742 6.77564
Spine1  8.15881 1.26576 -4.57626
HEad  -13.2607 -15.8975 -3.80155
LeftShoulder1  -0.782391 5.58689 -31.3911
LeftArm  -14.1433 20.5649 -41.554
LeftForeArm  23.8247 -9.19988 -3.36704
LeftHand  -0.0405918 6.33649 -1.32209
RightShoulder  -0.906875 -6.15977 27.5702
RightArm  14.1596 -0.365064 46.0765
RightForeArm  14.1187 12.5662 6.01548
RightHand  -0.277039 2.04014 -4.49107
LeftUpLeg  -17.6479 5.47663 4.48134
LeftLeg  10.8901 -0.217342 0.280716
LeftFoot  -2.6446 0.31989 -4.00164
LeftToes  -4.9204e-010 1.02043e-011 -1.81609e-011
34
root  7.0737 38.975 1.02042 -9.80986 -74.3225 7.00069
RightUpLeg  11.5659 -11.5503 -11.6466
RightLeg  8.43414 3.26132 -0.131695
RightFoot  -16.0196 0.227297 8.22102
RightToes  5.23868e-010 0 -3.6325e-017
Spine  4.85578 -0.121575 6.59793
Spine1  8.49812 1.37295 -5.11352
HEad  -13.4721 -16.9443 -3.31317
LeftShoulder1  -0.709496 5.41309 -31.0055
LeftArm  -13.6976 19.5687 -40.7397
LeftForeArm  22.0618 -10.5065 -3.65671
LeftHand  -0.0162839 7.65098 1.28203
RightShoulder  -0.877006 -6.10159 27.1626
RightArm  14.3727 0.122631 45.4647
RightForeArm  11.8966 13.2748 5.87721
RightHand  -0.350389 2.49833 -5.36766
LeftUpLeg  -17.8957 6.38495 4.09629
LeftLeg  11.9648 2.64941 0.822069
LeftFoot  -2.1533 0.239991 -2.80706
LeftToes  -4.9204e-010 1.02043e-011 -1.81609e-011
35
root  6.48197 38.814 1.73278 -10.1608 -73.9674 7.27744
RightUpLeg  13.129 -11.6201 -12.9072
RightLeg  8.17197 3.38697 -0.419054
RightFoot  -16.5122 0.318201 9.52326
RightToes  5.23868e-010 0 -3.6325e-017
Spine  4.93626 -0.156513 5.74902
Spine1  8.5381 1.29556 -5.13271
HEad  -13.5025 -17.4306 -3.03833
LeftShoulder1  -0.739829 5.49071 -31.0749
LeftArm  -12.9545 18.1754 -39.8895
LeftForeArm  22.4515 -11.3451 -3.90849
LeftHand  -0.0273824 6.41941 0.876726
RightShoulder  -0.778691 -5.86479 26.3532
RightArm  14.541 0.281017 44.8094
RightForeArm  11.6929 14.0443 5.62952
RightHand  -0.297622 2.2558 -4.71429
LeftUpLeg  -17.5204 6.82303 3.3518
LeftLeg  13.6408 5.76587 1.74028
LeftFoot  -0.838625 0.249302 -2.70228
LeftToes  -4.9204e-010 1.02043e-011 -1.81609e-011
36
root  5.87174 38.6421 2.50912 -12.4606 -73.497 9.74932
RightUpLeg  14.0525 -11.0717 -14.611
RightLeg  8.88398 3.00647 -0.990546
RightFoot  -17.1231 0.457303 11.2961
RightToes  5.23868e-010 0 -3.6325e-017
Spine  4.86816 -0.197149 4.21147
Spine1  8.32068 1.23661 -5.55219
HEad  -13.4026 -17.7553 -2.27826
LeftShoulder1  -0.709776 5.42245 -30.8339
LeftArm  -12.5432 16.8761 -39.4396
LeftForeArm  22.396 -11.7549 -4.04674
LeftHand  -0.0252908 5.67675 1.38582
RightShoulder  -0.719312 -5.70663 25.9986
RightArm  14.5029 0.328636 44.0776
RightForeArm  11.4385 14.4806 5.46955
RightHand  -0.27889 1.66237 -4.74594
LeftUpLeg  -17.5352 8.4967 1.53846
LeftLeg  15.3301 5.01133 1.57072
LeftFoot  1.96716 0.136193 -1.26062
LeftToes  -4.9204e-010 1.02043e-011 -1.81609e-011
37
root  5.27225 38.4061 3.34919 -15.9696 -72.0953 13.1313
RightUpLeg  14.3168 -8.98817 -16.6917
RightLeg  12.1854 0.770713 -1.16459
RightFoot  -18.0902 0.708848 14.0226
RightToes  5.23868e-010 0 -3.6325e-017
Spine  5.07366 -0.586292 2.17536
Spine1  8.36681 0.756475 -5.93893
HEad  -13.0604 -17.9468 -1.24878
LeftShoulder1  -0.702444 5.41177 -30.6544
LeftArm  -12.3933 14.3038 -39.2677
LeftForeArm  22.855 -10.7686 -4.18571
LeftHand  -0.0287692 5.04792 0.678933
RightShoulder  -0.722106 -5.72946 25.7671
RightArm  13.1759 0.269214 43.7983
RightForeArm  11.578 14.5628 5.19918
RightHand  -0.310463 2.07002 -5.01682
LeftUpLeg  -18.0137 8.95667 -1.10743
LeftLeg  18.7291 2.79139 1.34875
LeftFoot  1.65003 -0.0623882 0.480949
LeftToes  -4.9204e-010 1.02043e-011 -1.81609e-011
